<?xml version="1.0" encoding="UTF-8"?>
<svg version="1.1" xmlns="http://www.w3.org/2000/svg" width="500" height="330">
<path d="M0 0 C0.74358852 -0.00115384 1.48717704 -0.00230769 2.25329855 -0.0034965 C4.75270561 -0.00614992 7.25204866 -0.00165147 9.75145245 0.00279331 C11.55830564 0.00235735 13.36515876 0.00148198 15.17201155 0.00020415 C20.14321061 -0.0020359 25.1143882 0.00197381 30.08558452 0.00698221 C35.44410157 0.01129352 40.80261738 0.0098398 46.16113567 0.00907993 C55.44717287 0.00855513 64.73320304 0.01169738 74.01923847 0.01731777 C87.44535116 0.02543868 100.87146044 0.0280486 114.29757532 0.02930576 C136.07962218 0.03149535 157.8616653 0.03815292 179.64371014 0.04760838 C200.80516828 0.0567849 221.96662541 0.06386456 243.12808514 0.06811619 C244.43208859 0.06837891 245.73609204 0.06864164 247.07961074 0.06891232 C253.6212967 0.07021734 260.16298267 0.07148105 266.70466864 0.07272422 C320.98977165 0.08309393 375.27487059 0.10070973 429.5599699 0.12304783 C428.78611116 4.64089066 427.10641724 7.90755809 424.6849699 11.74804783 C423.86312567 13.08304358 423.04288872 14.41902978 422.2240324 15.75586033 C421.78994061 16.46258884 421.35584881 17.16931736 420.90860271 17.89746189 C418.5624187 21.76926014 416.31563795 25.69806681 414.0599699 29.62304783 C410.83687806 35.21532579 407.58657053 40.78672801 404.2474699 46.31054783 C400.3434232 52.76974362 396.54089235 59.28586121 392.7474699 65.81054783 C388.4642057 73.17483665 384.14833332 80.51591413 379.7474699 87.81054783 C374.7445799 96.10577775 369.82880681 104.45071567 364.9349699 112.81054783 C364.5671339 113.43885502 364.1992979 114.06716221 363.82031536 114.71450901 C362.0360627 117.76265041 360.2524267 120.81115202 358.46914959 123.85986423 C350.66909652 137.1917708 342.86055532 150.51959853 334.7630949 163.67382908 C330.42222974 170.72773496 326.14623948 177.75968842 322.25137615 185.07226658 C319.47826193 190.07411925 316.48856438 194.94545821 313.53189373 199.84033298 C307.08647324 210.52995888 300.82676415 221.32806148 294.5599699 232.12304783 C290.19696265 228.40165929 287.87008495 224.3074048 285.22061443 219.25439548 C282.16888076 213.49997971 278.80285381 207.92182168 275.4974699 202.31054783 C274.74246773 201.02603139 273.98758671 199.74144373 273.23282146 198.45678806 C267.21266336 188.21442236 261.1720363 177.98411776 255.12051678 167.76025486 C252.43140437 163.21585684 249.74591121 158.66932057 247.0599699 154.12304783 C245.97665301 152.28970478 244.8933197 150.45637144 243.8099699 148.62304783 C224.3099699 115.62304783 204.8099699 82.62304783 185.3099699 49.62304783 C184.77291424 48.71433933 184.23585857 47.80563084 183.6825285 46.86938572 C182.606784 45.04858377 181.53158247 43.22746091 180.45694256 41.40600681 C177.63702587 36.62807631 174.80597128 31.85721689 171.9584074 27.09570408 C171.07378826 25.61167088 171.07378826 25.61167088 170.17129803 24.0976572 C169.04588494 22.21015337 167.91717984 20.32460695 166.78457928 18.4414072 C166.01984295 17.15653416 166.01984295 17.15653416 165.2396574 15.84570408 C164.79348064 15.10070652 164.34730389 14.35570896 163.88760662 13.58813572 C162.24260267 10.5337766 160.92654332 7.31171913 159.5599699 4.12304783 C159.2299699 38.77304783 158.8999699 73.42304783 158.5599699 109.12304783 C146.3499699 109.12304783 134.1399699 109.12304783 121.5599699 109.12304783 C121.5599699 109.78304783 121.5599699 110.44304783 121.5599699 111.12304783 C122.8387199 111.34992283 124.1174699 111.57679783 125.4349699 111.81054783 C138.6458865 114.82900452 149.68095552 123.80136737 156.86075115 135.18554783 C164.739706 149.31653469 165.14750283 165.69414845 160.8724699 180.99804783 C156.14560416 194.81899224 147.66061327 204.87671685 134.8724699 211.81054783 C123.54211846 217.07583345 112.0049105 217.55304516 99.7540617 217.463624 C98.10684506 217.46277578 96.45962729 217.46325667 94.81241131 217.46495152 C90.38140249 217.46580529 85.95064188 217.44828075 81.51969028 217.42722964 C76.87393499 217.40835874 72.22817277 217.40670425 67.58238506 217.40315342 C58.80314538 217.39386334 50.024019 217.36929107 41.244829 217.33910495 C29.36864895 217.29916463 17.49243749 217.2830815 5.61620712 217.2655983 C-13.06929 217.23746748 -31.75454813 217.17767782 -50.4400301 217.12304783 C-50.4400301 181.48304783 -50.4400301 145.84304783 -50.4400301 109.12304783 C-36.2500301 109.12304783 -22.0600301 109.12304783 -7.4400301 109.12304783 C-7.4400301 108.46304783 -7.4400301 107.80304783 -7.4400301 107.12304783 C-8.3269051 107.06117283 -9.2137801 106.99929783 -10.1275301 106.93554783 C-24.52809367 104.83668026 -38.69257364 96.44469233 -47.5650301 85.06054783 C-55.98022504 73.16986128 -58.24174617 58.28801281 -55.94393635 44.04882908 C-51.9730696 28.32240202 -42.32569702 15.32436367 -28.4478426 6.91601658 C-19.6389545 2.19317899 -9.93642647 -0.03794258 0 0 Z " fill="#FBFBFB" transform="translate(67.44003009796143,16.876952171325684)"/>
<path d="M0 0 C8.59621149 6.62624636 12.55397343 14.13577918 14.625 24.8125 C15.11290866 33.16644833 12.08718195 40.08192129 7.5625 46.9375 C1.37408503 53.79648625 -7.44860485 58.35494743 -16.5625 59.05859375 C-28.25321598 59.47431964 -36.63821649 56.57201466 -45.375 48.8125 C-51.22074513 43.09961271 -54.49174084 35.47309849 -54.8125 27.25 C-54.2657285 16.72936227 -49.76811672 8.63810101 -42.29296875 1.41796875 C-30.280028 -8.63767004 -12.80791879 -8.46134001 0 0 Z " fill="#F6F6F6" transform="translate(381.375,262.1875)"/>
<path d="M0 0 C2 1 2 1 2.6875 2.9375 C3 5 3 5 2 7 C1.89701001 8.34272103 1.85359401 9.69028253 1.84178162 11.03689575 C1.82709839 12.30314285 1.82709839 12.30314285 1.81211853 13.5949707 C1.80636307 14.522854 1.8006076 15.4507373 1.79467773 16.40673828 C1.78477814 17.38238739 1.77487854 18.3580365 1.76467896 19.36325073 C1.73300689 22.59891302 1.70828398 25.83459001 1.68359375 29.0703125 C1.66302915 31.30948272 1.64203282 33.54864901 1.62062073 35.78781128 C1.56534904 41.68968533 1.51596226 47.59159471 1.46777344 53.49353027 C1.41759559 59.51264603 1.36189015 65.53171029 1.30664062 71.55078125 C1.1989967 83.36714521 1.0980762 95.18355275 1 107 C-17.81 107.495 -17.81 107.495 -37 108 C-37 107.34 -37 106.68 -37 106 C-24.79 106 -12.58 106 0 106 C0 71.02 0 36.04 0 0 Z " fill="#A1A1A1" transform="translate(226,20)"/>
</svg>
